HIERARCHY
ROOT root
{
	OFFSET	0	13.1	24.9
	CHANNELS 6  Xposition Yposition Zposition Xrotation Yrotation Zrotation
	JOINT spine_1
	{
		OFFSET	0	9.99999	0
		CHANNELS 3  Xrotation Yrotation Zrotation
		JOINT spine_2
		{
			OFFSET	0	112	-10
			CHANNELS 3  Xrotation Yrotation Zrotation
			JOINT spine_3
			{
				OFFSET	0	206.5	19.3
				CHANNELS 3  Xrotation Yrotation Zrotation
				JOINT spine_4
				{
					OFFSET	0	110.4	14.6
					CHANNELS 3  Xrotation Yrotation Zrotation
					JOINT neck_1
					{
						OFFSET	0	71.8	-50.3
						CHANNELS 3  Xrotation Yrotation Zrotation
						JOINT neck_2
						{
							OFFSET	0	86.2	-25.8
							CHANNELS 3  Xrotation Yrotation Zrotation
							JOINT head_ee
							{
								OFFSET	0	179.8	-8.7
								CHANNELS 3  Xrotation Yrotation Zrotation
								End Site
								{
									OFFSET	1	0	0
								}
							}
						}
					}
					JOINT left_clavicle
					{
						OFFSET	-43.2	22.4	-70.8
						CHANNELS 3  Xrotation Yrotation Zrotation
						JOINT left_shoulder
						{
							OFFSET	-93.9	-5.79999	48.7
							CHANNELS 3  Xrotation Yrotation Zrotation
							JOINT left_elbow
							{
								OFFSET	-291.4	-30.8	15.2
								CHANNELS 3  Xrotation Yrotation Zrotation
								JOINT left_lowarm_twist
								{
									OFFSET	-110.7	-3.89999	13.6
									CHANNELS 3  Xrotation Yrotation Zrotation
									JOINT left_hand
									{
										OFFSET	-110.7	-3.89999	13.6
										CHANNELS 3  Xrotation Yrotation Zrotation
										JOINT left_ee
										{
											OFFSET	-80.8	-5.10001	12.1
											CHANNELS 3  Xrotation Yrotation Zrotation
											End Site
											{
												OFFSET	1	0	0
											}
										}
									}
								}
							}
						}
					}
					JOINT right_clavicle
					{
						OFFSET	43.2	22.4	-70.8
						CHANNELS 3  Xrotation Yrotation Zrotation
						JOINT right_shoulder
						{
							OFFSET	93.9	-5.79999	48.7
							CHANNELS 3  Xrotation Yrotation Zrotation
							JOINT right_elbow
							{
								OFFSET	291.4	-30.8	15.2
								CHANNELS 3  Xrotation Yrotation Zrotation
								JOINT right_lowarm_twist
								{
									OFFSET	110.7	-3.89999	13.6
									CHANNELS 3  Xrotation Yrotation Zrotation
									JOINT right_hand
									{
										OFFSET	110.7	-3.89999	13.6
										CHANNELS 3  Xrotation Yrotation Zrotation
										JOINT right_ee
										{
											OFFSET	80.8	-5.10001	12.1
											CHANNELS 3  Xrotation Yrotation Zrotation
											End Site
											{
												OFFSET	1	0	0
											}
										}
									}
								}
							}
						}
					}
				}
			}
		}
	}
	JOINT left_hip
	{
		OFFSET	-82.8	-127.5	0.300001
		CHANNELS 3  Xrotation Yrotation Zrotation
		JOINT left_knee
		{
			OFFSET	-28.2	-396.7	2.2
			CHANNELS 3  Xrotation Yrotation Zrotation
			JOINT left_ankle
			{
				OFFSET	-11.7	-411.3	35.4
				CHANNELS 3  Xrotation Yrotation Zrotation
				JOINT left_toes
				{
					OFFSET	0	-60	-88.6
					CHANNELS 3  Xrotation Yrotation Zrotation
					JOINT left_foot_ee
					{
						OFFSET	-22.5	-16.5	-42.2
						CHANNELS 3  Xrotation Yrotation Zrotation
						End Site
						{
							OFFSET	1	0	0
						}
					}
				}
			}
		}
	}
	JOINT right_hip
	{
		OFFSET	82.8	-127.5	0.300001
		CHANNELS 3  Xrotation Yrotation Zrotation
		JOINT right_knee
		{
			OFFSET	28.2	-396.7	2.2
			CHANNELS 3  Xrotation Yrotation Zrotation
			JOINT right_ankle
			{
				OFFSET	11.7	-411.3	35.4
				CHANNELS 3  Xrotation Yrotation Zrotation
				JOINT right_toes
				{
					OFFSET	0	-60	-88.6
					CHANNELS 3  Xrotation Yrotation Zrotation
					JOINT right_foot_ee
					{
						OFFSET	22.5	-16.5	-42.2
						CHANNELS 3  Xrotation Yrotation Zrotation
						End Site
						{
							OFFSET	1	0	0
						}
					}
				}
			}
		}
	}
}
MOTION
Frames: 12
Frame Time: 0.02
1212.82634552 737.838 -1744.58036077 -8.92748332001 14.4004011175 -1.96269208394 2.60523 0.854502 2.83281 2.60944 0.672588 2.88138 2.64268 0.188783 2.95275 2.63111 0.652551 2.88598 -16.059 12.8217 -3.57981 -16.788 26.6159 1.3554 -0.0 0.0 -0.0 0.556424 19.9032 3.13903 -18.7904 -25.2177 64.2481 0.548701 -15.2064 0.073244 -8.2219 -0.361183 0.986207 -1.45971 26.3133 2.24067 -0.0 0.0 -0.0 12.9573 26.5303 -25.5152 -13.3549 25.034 -55.9404 0.788529 21.3362 -0.148542 40.5347 0.377366 5.05781 -2.54279 -26.7344 3.54335 0.0 0.0 0.0 32.6406 6.36819 -1.24743 -60.6103 -2.26624 8.59234 20.0247 24.3107 -2.86114 -38.2599 0.0 0.0 -0.0 0.0 -0.0 27.0128 -2.06643 2.55766 -19.8356 -0.297558 -3.01421 7.7127 23.9596 1.3022 -0.903119 0.0 0.0 0.0 0.0 0.0 
1184.36849699 740.025 -1762.4191355 -9.86538755881 18.9571338679 -1.7064530477 2.78068 0.437945 3.02654 2.78575 0.244562 3.04824 2.79753 -0.253252 3.04753 2.78464 0.230998 3.0493 -16.7272 11.7303 -2.7592 -17.3671 24.0563 1.83381 -0.0 0.0 -0.0 -0.140694 22.0101 2.3567 -20.642 -26.016 65.2554 0.613443 -16.9032 0.0911508 -7.59421 -0.328645 0.912818 -0.966142 26.9066 5.22864 -0.0 0.0 -0.0 12.6918 26.2622 -24.9357 -10.5559 28.077 -53.8105 1.00538 26.4743 -0.236503 39.8049 0.339153 4.97264 -2.37677 -22.4754 4.80439 0.0 0.0 0.0 36.4066 3.76664 -0.168872 -53.7143 -1.56081 7.79758 18.8337 25.3789 -2.72008 -39.8307 0.0 0.0 -0.0 0.0 -0.0 25.1945 -2.31552 3.92808 -17.7995 -0.315341 -2.70232 8.99389 18.8842 1.43738 -2.18404 0.0 0.0 0.0 0.0 0.0 
1183.392948 740.025 -1761.77925518 -9.8769233003 19.149086818 -1.67111556682 2.78068 0.437945 3.02654 2.78575 0.244562 3.04824 2.79753 -0.253252 3.04753 2.78464 0.230998 3.0493 -16.7272 11.7303 -2.7592 -17.3671 24.0563 1.83381 -0.0 0.0 -0.0 -0.140694 22.0101 2.3567 -20.642 -26.016 65.2554 0.613443 -16.9032 0.0911508 -7.59421 -0.328645 0.912818 -0.966142 26.9066 5.22864 -0.0 0.0 -0.0 12.6918 26.2622 -24.9357 -10.5559 28.077 -53.8105 1.00538 26.4743 -0.236503 39.8049 0.339153 4.97264 -2.37677 -22.4754 4.80439 0.0 0.0 0.0 36.4066 3.76664 -0.168872 -53.7143 -1.56081 7.79758 18.8337 25.3789 -2.72008 -39.8307 0.0 0.0 -0.0 0.0 -0.0 25.1945 -2.31552 3.92808 -17.7995 -0.315341 -2.70232 8.99389 18.8842 1.43738 -2.18404 0.0 0.0 0.0 0.0 0.0 
1132.05012483 740.556 -1771.00636196 -12.4228939799 26.5202357052 0.807163853343 3.18915 0.205784 2.96286 3.19404 0.0169173 2.96994 3.1931 -0.445179 2.93647 3.18107 0.0239558 2.96989 -13.428 10.9301 -3.05849 -13.7774 22.7031 0.523787 -0.0 0.0 -0.0 -1.01401 23.4547 1.32638 -21.8541 -25.7308 66.6965 0.602822 -16.6268 0.088087 -7.23623 -0.310449 0.870807 -0.82632 27.0369 6.05514 -0.0 0.0 -0.0 12.4507 25.2416 -24.4975 -8.31632 29.4963 -51.5136 1.11715 28.9595 -0.288503 38.7747 0.287069 4.85163 -2.41217 -21.0059 5.76572 0.0 0.0 0.0 38.1007 5.34861 -2.22085 -47.0408 -0.974325 6.95428 13.4589 28.0565 -2.01527 -40.1588 0.0 0.0 -0.0 0.0 -0.0 24.3169 -2.71006 5.04001 -15.6345 -0.32208 -2.37024 12.6936 16.4824 1.95839 -2.13624 0.0 0.0 0.0 0.0 0.0 
1099.67281018 736.93 -1782.99327802 -12.5677090421 29.6274012386 1.44341925252 2.91335 0.243596 2.94863 2.91819 0.0555572 2.95815 2.91962 -0.419118 2.92886 2.90766 0.0484906 2.95827 -11.9343 10.6337 -3.23019 -12.1745 22.2318 -0.0500406 -0.0 0.0 -0.0 -1.52332 23.6637 0.661449 -22.9469 -25.726 67.578 0.659455 -18.091 0.104985 -6.64415 -0.280934 0.801081 -0.355156 26.5298 8.47852 -0.0 0.0 -0.0 12.1237 23.9677 -23.88 -7.86361 29.3029 -50.9816 1.29316 32.6418 -0.378672 37.6105 0.230846 4.71378 -2.01276 -15.4125 6.14651 0.0 0.0 0.0 38.9517 7.3413 -4.6013 -43.6214 -0.713085 6.49765 10.0651 27.869 -1.52185 -39.9981 0.0 0.0 -0.0 0.0 -0.0 23.8424 -1.00264 5.80034 -18.6487 -0.309271 -2.83248 14.725 16.235 2.24699 -1.67504 0.0 0.0 0.0 0.0 0.0 
1077.98670819 731.803 -1788.03091766 -13.0350017336 32.0273289997 2.05718262198 3.13296 0.221899 2.94971 3.1378 0.0338356 2.95785 3.13782 -0.429386 2.92674 3.12587 0.038016 2.95779 -9.49565 10.3935 -3.59382 -9.57937 21.9732 -0.973695 -0.0 0.0 -0.0 -1.64071 24.0475 0.561859 -23.0874 -25.6193 67.7139 0.570427 -15.779 0.0790475 -6.38099 -0.268047 0.769993 -0.620635 26.0096 6.78901 -0.0 0.0 -0.0 12.0148 23.4199 -23.6836 -7.89784 29.7368 -50.3426 1.42712 35.2565 -0.453504 37.2861 0.215682 4.67518 -1.93881 -14.3795 6.18817 0.0 0.0 0.0 40.8755 9.86186 -5.86056 -34.9387 -0.176556 5.2769 3.15202 27.979 -0.486035 -40.1148 0.0 0.0 -0.0 0.0 -0.0 22.9087 -2.86943 6.44877 -18.3114 -0.311913 -2.78079 16.3419 15.4344 2.46006 -1.08047 0.0 0.0 0.0 0.0 0.0 
1054.64065072 731.338 -1790.05501312 -13.5555115143 34.2174822972 3.06021328459 3.15339 0.244531 2.8884 3.15803 0.0603179 2.8981 3.15942 -0.392751 2.87202 3.14791 0.0655625 2.89798 -7.91527 10.1439 -4.11021 -7.89284 21.8255 -1.86702 -0.0 0.0 -0.0 -1.73484 23.9885 0.425144 -23.4669 -25.5721 68.0882 0.563017 -15.5841 0.0770444 -5.81063 -0.24061 0.702418 -0.514337 25.1799 7.06184 -0.0 0.0 -0.0 11.6517 21.6126 -23.0133 -8.20034 29.5875 -49.716 1.66864 39.5737 -0.60035 36.5532 0.18223 4.58765 -1.69527 -10.7245 6.3904 0.0 0.0 0.0 42.0089 11.9738 -6.82365 -30.0074 0.0437843 4.55254 -2.40396 28.7119 0.376914 -40.1029 0.0 0.0 -0.0 0.0 -0.0 22.0794 -2.02661 6.64282 -19.4553 -0.301721 -2.95601 18.0886 15.1169 2.69365 -0.105644 0.0 0.0 0.0 0.0 0.0 
1032.4952781 729.356 -1790.14944453 -14.0423707808 35.8980238301 3.86356493685 3.11652 0.301858 2.89935 3.12119 0.116833 2.91267 3.12551 -0.340849 2.89503 3.11384 0.120444 2.91252 -7.25603 9.99099 -4.45818 -7.18509 21.7717 -2.38308 -0.0 0.0 -0.0 -1.73916 23.9111 0.406871 -23.406 -25.6776 68.7592 0.568265 -15.7222 0.0784604 -5.32945 -0.217987 0.645201 -0.444944 24.4077 7.15532 -0.0 0.0 -0.0 11.2687 20.2417 -22.2467 -8.36381 29.4546 -49.103 1.88197 42.9881 -0.741157 35.8977 0.153261 4.50901 -1.48816 -7.64231 6.48622 0.0 0.0 0.0 42.7195 13.7446 -7.04831 -25.524 0.189324 3.88004 -6.40005 29.1224 1.01312 -40.1238 0.0 0.0 -0.0 0.0 -0.0 20.6149 -1.54047 6.65065 -20.2691 -0.292343 -3.08052 19.3981 14.977 2.86665 0.67554 -0.0 -0.0 0.0 0.0 0.0 
1012.5724681 722.695 -1796.84514168 -14.2929981664 36.8607275774 4.40234173415 3.0908 0.327942 2.7976 3.09515 0.149331 2.81278 3.10102 -0.294246 2.80134 3.09011 0.151686 2.81265 -10.0308 9.78361 -4.17833 -10.1191 21.2287 -1.59689 -0.0 0.0 -0.0 -1.54276 23.7757 0.652272 -23.8692 -25.5283 68.789 0.565986 -15.6622 0.077844 -5.49299 -0.225622 0.664668 -0.244747 23.1959 7.84205 -0.0 0.0 -0.0 11.0291 19.3054 -21.7686 -7.25305 29.546 -49.0848 2.085 45.9202 -0.883399 35.4683 0.134774 4.45732 -1.29029 -3.25756 7.18172 0.0 0.0 0.0 43.1457 15.4093 -7.3032 -22.3406 0.260495 3.39677 -9.98731 26.1156 1.56059 -40.0571 0.0 0.0 -0.0 0.0 -0.0 22.3742 2.0204 7.25129 -26.3553 -0.166324 -4.00554 21.2205 12.9083 3.06344 1.30368 -0.0 -0.0 0.0 0.0 0.0 
1007.61338254 722.695 -1791.21490431 -14.4615361093 37.7240353292 4.68050279109 3.0908 0.327942 2.7976 3.09515 0.149331 2.81278 3.10102 -0.294246 2.80134 3.09011 0.151686 2.81265 -10.0308 9.78361 -4.17833 -10.1191 21.2287 -1.59689 -0.0 0.0 -0.0 -1.54276 23.7757 0.652272 -23.8692 -25.5283 68.789 0.565986 -15.6622 0.077844 -5.49299 -0.225622 0.664668 -0.244747 23.1959 7.84205 -0.0 0.0 -0.0 11.0291 19.3054 -21.7686 -7.25305 29.546 -49.0848 2.085 45.9202 -0.883399 35.4683 0.134774 4.45732 -1.29029 -3.25756 7.18172 0.0 0.0 0.0 43.1457 15.4093 -7.3032 -22.3406 0.260495 3.39677 -9.98731 26.1156 1.56059 -40.0571 0.0 0.0 -0.0 0.0 -0.0 22.3742 2.0204 7.25129 -26.3553 -0.166324 -4.00554 21.2205 12.9083 3.06344 1.30368 -0.0 -0.0 0.0 0.0 0.0 
1001.54937244 722.695 -1784.08261132 -14.6822012553 38.8003020823 5.03682278094 3.0908 0.327942 2.7976 3.09515 0.149331 2.81278 3.10102 -0.294246 2.80134 3.09011 0.151686 2.81265 -10.0308 9.78361 -4.17833 -10.1191 21.2287 -1.59689 -0.0 0.0 -0.0 -1.54276 23.7757 0.652272 -23.8692 -25.5283 68.789 0.565986 -15.6622 0.077844 -5.49299 -0.225622 0.664668 -0.244747 23.1959 7.84205 -0.0 0.0 -0.0 11.0291 19.3054 -21.7686 -7.25305 29.546 -49.0848 2.085 45.9202 -0.883399 35.4683 0.134774 4.45732 -1.29029 -3.25756 7.18172 0.0 0.0 0.0 43.1457 15.4093 -7.3032 -22.3406 0.260495 3.39677 -9.98731 26.1156 1.56059 -40.0571 0.0 0.0 -0.0 0.0 -0.0 22.3742 2.0204 7.25129 -26.3553 -0.166324 -4.00554 21.2205 12.9083 3.06344 1.30368 -0.0 -0.0 0.0 0.0 0.0 
997.747955757 722.695 -1779.46465053 -14.8294965974 39.4873582288 5.27015042097 3.0908 0.327942 2.7976 3.09515 0.149331 2.81278 3.10102 -0.294246 2.80134 3.09011 0.151686 2.81265 -10.0308 9.78361 -4.17833 -10.1191 21.2287 -1.59689 -0.0 0.0 -0.0 -1.54276 23.7757 0.652272 -23.8692 -25.5283 68.789 0.565986 -15.6622 0.077844 -5.49299 -0.225622 0.664668 -0.244747 23.1959 7.84205 -0.0 0.0 -0.0 11.0291 19.3054 -21.7686 -7.25305 29.546 -49.0848 2.085 45.9202 -0.883399 35.4683 0.134774 4.45732 -1.29029 -3.25756 7.18172 0.0 0.0 0.0 43.1457 15.4093 -7.3032 -22.3406 0.260495 3.39677 -9.98731 26.1156 1.56059 -40.0571 0.0 0.0 -0.0 0.0 -0.0 22.3742 2.0204 7.25129 -26.3553 -0.166324 -4.00554 21.2205 12.9083 3.06344 1.30368 -0.0 -0.0 0.0 0.0 0.0 
